<svg xmlns="http://www.w3.org/2000/svg" viewBox="0 0 781.327 104.484"><defs><style>.a{isolation:isolate;}.b{fill:#89cfe5;}.c{fill:#0590c7;}.d{fill:#405256;}.e{fill:#fff;}.f{opacity:0.1;}.g{mix-blend-mode:darken;}</style></defs><title>ciAsset 2</title><g class="a"><path class="b" d="M257.431,58.794l4.926-4.927a1.107,1.107,0,0,0,0-1.565l-4.926-4.926,3.391-3.392,9.164,9.086-5.313,5.261-3.853,3.852Z"/><path class="c" d="M296.9,41.451h0a16.5,16.5,0,0,0-23.266,0h0l-5.994,5.994h0a.3.3,0,0,0,0,.431l4.093,4.093a.3.3,0,0,0,.431,0h0l5.994-5.994a10.054,10.054,0,1,1,0,14.219L272.169,54.2a.3.3,0,0,0-.431,0l-4.093,4.093a.3.3,0,0,0,0,.431h0l5.994,5.994h0a16.5,16.5,0,0,0,23.266,0h0A16.5,16.5,0,0,0,296.9,41.451Z"/><path class="c" d="M259.743,63.964l-4.093-4.093a.3.3,0,0,0-.431,0l-.01-.011-.341.34a10.054,10.054,0,1,1,0-14.218l.334.334.017-.017a.306.306,0,0,0,.431,0l4.093-4.094a.3.3,0,0,0,0-.43l-.017.017-.334-.334h0a16.5,16.5,0,0,0-23.266,0h0a16.5,16.5,0,0,0,0,23.266h0a16.5,16.5,0,0,0,23.266,0h0l.341-.34.01.011A.3.3,0,0,0,259.743,63.964Z"/><path class="c" d="M304.888,49.534a13.693,13.693,0,0,1,1.087-5.586,12.09,12.09,0,0,1,2.994-4.182,13.061,13.061,0,0,1,4.521-2.622,17.383,17.383,0,0,1,5.724-.905,17.664,17.664,0,0,1,5.754.905,13.033,13.033,0,0,1,4.549,2.622,11.8,11.8,0,0,1,2.966,4.182,14.065,14.065,0,0,1,1.057,5.586V68.447h-6.694v-17.1q0-4.245-1.937-6.461a8.463,8.463,0,0,0-11.419,0q-1.91,2.217-1.909,6.461v17.1h-6.693Z"/><path class="c" d="M339.058,31.557A3.1,3.1,0,0,1,340,29.03a3.923,3.923,0,0,1,2.584-.78,6.645,6.645,0,0,1,1.966.28c.607.188,1.007.323,1.2.406v8.177h8.513a3.64,3.64,0,0,1,2.73.843,3.467,3.467,0,0,1,.793,2.465,6.332,6.332,0,0,1-.294,1.967,12.175,12.175,0,0,1-.47,1.279H345.751V57.586a7.219,7.219,0,0,0,.411,2.653,4.123,4.123,0,0,0,1.144,1.655,4.212,4.212,0,0,0,1.7.873,8.108,8.108,0,0,0,2.026.25,9.653,9.653,0,0,0,5.284-1.623l2.7,4.744q-.471.373-1.321.936a11.965,11.965,0,0,1-2.085,1.061,17.734,17.734,0,0,1-2.759.843,15.263,15.263,0,0,1-3.347.344q-5.166,0-7.808-2.841a10.511,10.511,0,0,1-2.642-7.459Z"/><path class="c" d="M364.656,23.069a3.8,3.8,0,0,1,2.876,1.248,4.568,4.568,0,0,1,0,6.117,3.938,3.938,0,0,1-5.754,0,4.571,4.571,0,0,1,0-6.117A3.8,3.8,0,0,1,364.656,23.069Zm-3.347,17.352a3.107,3.107,0,0,1,.94-2.528,4.019,4.019,0,0,1,2.641-.78,6.359,6.359,0,0,1,1.938.281c.587.187.978.323,1.174.405V68.447h-6.693Z"/><path class="c" d="M373.7,49.534a13.709,13.709,0,0,1,1.086-5.586,12.105,12.105,0,0,1,3-4.182,13.061,13.061,0,0,1,4.521-2.622,17.383,17.383,0,0,1,5.724-.905,17.664,17.664,0,0,1,5.754.905,13.033,13.033,0,0,1,4.549,2.622,11.8,11.8,0,0,1,2.966,4.182,14.065,14.065,0,0,1,1.057,5.586V68.447h-6.694v-17.1q0-4.245-1.937-6.461a8.463,8.463,0,0,0-11.419,0q-1.909,2.217-1.909,6.461v17.1H373.7Z"/><path class="c" d="M407.691,40.421a3.11,3.11,0,0,1,.938-2.528,4.025,4.025,0,0,1,2.643-.78,6.357,6.357,0,0,1,1.937.281c.588.187.978.323,1.174.405V54.216q0,4.245,1.88,6.46t5.753,2.215q3.874,0,5.754-2.215t1.878-6.46v-13.8a3.11,3.11,0,0,1,.94-2.528,3.924,3.924,0,0,1,2.583-.78,6.58,6.58,0,0,1,2,.281c.586.187.977.323,1.174.405V55.776a15.053,15.053,0,0,1-1.028,5.712,11.655,11.655,0,0,1-2.936,4.275,12.734,12.734,0,0,1-4.549,2.653,19.1,19.1,0,0,1-11.626,0,12.44,12.44,0,0,1-4.52-2.653,12.143,12.143,0,0,1-2.936-4.275,14.694,14.694,0,0,1-1.056-5.712Z"/><path class="c" d="M456.714,36.239a16.252,16.252,0,0,1,6.37,1.249,15.572,15.572,0,0,1,5.137,3.464,16.029,16.029,0,0,1,3.4,5.243,18.035,18.035,0,0,1,0,13.108,16.058,16.058,0,0,1-29.825,0,18.035,18.035,0,0,1,0-13.108,16.045,16.045,0,0,1,3.405-5.243,15.566,15.566,0,0,1,5.138-3.464A16.242,16.242,0,0,1,456.714,36.239Zm0,26.778a8.766,8.766,0,0,0,3.7-.781,8.367,8.367,0,0,0,2.906-2.184,10.49,10.49,0,0,0,1.878-3.246,11.61,11.61,0,0,0,.676-4.026,12.146,12.146,0,0,0-.676-4.088,9.971,9.971,0,0,0-1.878-3.277,8.578,8.578,0,0,0-2.906-2.154,9.23,9.23,0,0,0-7.427,0,8.634,8.634,0,0,0-2.877,2.154,9.956,9.956,0,0,0-1.879,3.277,12.145,12.145,0,0,0-.675,4.088,11.61,11.61,0,0,0,.675,4.026,10.473,10.473,0,0,0,1.879,3.246,8.42,8.42,0,0,0,2.877,2.184A8.7,8.7,0,0,0,456.714,63.017Z"/><path class="c" d="M477.028,40.421a3.11,3.11,0,0,1,.938-2.528,4.025,4.025,0,0,1,2.643-.78,6.357,6.357,0,0,1,1.937.281c.588.187.978.323,1.174.405V54.216q0,4.245,1.879,6.46t5.754,2.215q3.874,0,5.754-2.215t1.878-6.46v-13.8a3.11,3.11,0,0,1,.94-2.528,3.924,3.924,0,0,1,2.583-.78,6.58,6.58,0,0,1,2,.281c.586.187.977.323,1.174.405V55.776a15.053,15.053,0,0,1-1.028,5.712,11.655,11.655,0,0,1-2.936,4.275,12.734,12.734,0,0,1-4.549,2.653,19.1,19.1,0,0,1-11.626,0,12.44,12.44,0,0,1-4.52-2.653,12.13,12.13,0,0,1-2.936-4.275,14.694,14.694,0,0,1-1.056-5.712Z"/><path class="c" d="M511.843,60.645a9.112,9.112,0,0,0,1.468.812,25.378,25.378,0,0,0,2.613,1.03,25.746,25.746,0,0,0,3.551.9,23.571,23.571,0,0,0,4.345.375,12.6,12.6,0,0,0,4.991-.843,2.947,2.947,0,0,0,1.937-2.9,3.086,3.086,0,0,0-1.233-2.653,9.817,9.817,0,0,0-4.4-1.28l-4.58-.562a20.441,20.441,0,0,1-4.315-.9,10.851,10.851,0,0,1-3.376-1.78,7.829,7.829,0,0,1-2.2-2.777,9.1,9.1,0,0,1-.792-3.964,9.791,9.791,0,0,1,.734-3.776,8.377,8.377,0,0,1,2.319-3.152,11.282,11.282,0,0,1,4.139-2.154,21.407,21.407,0,0,1,6.194-.78,24.969,24.969,0,0,1,9.482,1.436q3.376,1.436,3.376,3.745a3.056,3.056,0,0,1-.264,1.311,6.03,6.03,0,0,1-.587,1,3.776,3.776,0,0,1-.676.717,2.187,2.187,0,0,1-.528.344,7,7,0,0,0-1.027-.781,11.56,11.56,0,0,0-2.144-1.061,21.227,21.227,0,0,0-3.228-.936,20.782,20.782,0,0,0-4.345-.406q-6.812,0-6.811,3.808a2.759,2.759,0,0,0,1.292,2.465,8.924,8.924,0,0,0,3.7,1.155l5.989.811a15.461,15.461,0,0,1,7.573,2.841,7.62,7.62,0,0,1,2.7,6.335,9.124,9.124,0,0,1-3.493,7.49q-3.495,2.81-10.069,2.81a30.492,30.492,0,0,1-5.754-.5,33.868,33.868,0,0,1-4.492-1.154,21.811,21.811,0,0,1-3.082-1.281,9.118,9.118,0,0,1-1.527-.936Z"/><path class="d" d="M547.129,26.689a3.036,3.036,0,0,1-.852,2.153,2.686,2.686,0,0,1-2.025.905,2.6,2.6,0,0,1-2-.905,3.092,3.092,0,0,1-.822-2.153,2.985,2.985,0,0,1,.822-2.122,2.637,2.637,0,0,1,2-.874,2.731,2.731,0,0,1,2.025.874A2.932,2.932,0,0,1,547.129,26.689Zm-4.756,13.046a2.294,2.294,0,0,1,.5-1.53,2,2,0,0,1,1.615-.593,3.456,3.456,0,0,1,1.027.156,4.885,4.885,0,0,1,.734.281v30.4h-3.875Z"/><path class="d" d="M596.681,68.447v-18.1q0-5.431-2.465-7.74a8.91,8.91,0,0,0-6.342-2.309,10.3,10.3,0,0,0-3.522.592,7.481,7.481,0,0,0-2.877,1.873,8.9,8.9,0,0,0-1.938,3.308,15.013,15.013,0,0,0-.7,4.9V68.447h-3.875V50.97a15.04,15.04,0,0,0-.7-4.9,9.146,9.146,0,0,0-1.909-3.308,7.244,7.244,0,0,0-2.847-1.873,10.32,10.32,0,0,0-3.523-.592,10.732,10.732,0,0,0-3.552.561,7.1,7.1,0,0,0-2.818,1.81,8.289,8.289,0,0,0-1.85,3.184,14.875,14.875,0,0,0-.645,4.681V68.447h-3.875V48.6a13.1,13.1,0,0,1,.939-5.149,10.274,10.274,0,0,1,2.613-3.714,11,11,0,0,1,3.933-2.247,15.476,15.476,0,0,1,4.9-.75,13.945,13.945,0,0,1,6.751,1.623,11.258,11.258,0,0,1,4.7,4.994,11.822,11.822,0,0,1,4.667-4.931,13.123,13.123,0,0,1,6.605-1.686,15.689,15.689,0,0,1,4.815.718,10.672,10.672,0,0,1,3.875,2.185,10.25,10.25,0,0,1,2.583,3.651,12.888,12.888,0,0,1,.939,5.119V68.447Z"/><path class="d" d="M606.544,54.527q0-1.5.088-2.652t.206-2.029a18.259,18.259,0,0,1,1.82-5.493,14.225,14.225,0,0,1,3.229-4.119,13.835,13.835,0,0,1,4.462-2.59,16.065,16.065,0,0,1,5.46-.906,15.284,15.284,0,0,1,6.282,1.28,14.924,14.924,0,0,1,4.932,3.495,16.046,16.046,0,0,1,3.2,5.181,18.275,18.275,0,0,1,0,12.734,16.025,16.025,0,0,1-3.2,5.181,14.517,14.517,0,0,1-4.932,3.463,15.6,15.6,0,0,1-6.282,1.25,13.749,13.749,0,0,1-6.752-1.654,12.246,12.246,0,0,1-4.638-4.339v17.6h-3.875Zm26.655-1.5a15.384,15.384,0,0,0-.792-4.963,11.923,11.923,0,0,0-2.29-4.057,11.038,11.038,0,0,0-3.582-2.715,10.817,10.817,0,0,0-4.726-1,10.945,10.945,0,0,0-4.667.967,10.539,10.539,0,0,0-3.553,2.652,12.211,12.211,0,0,0-2.289,4.027,15.224,15.224,0,0,0-.823,5.087,14.838,14.838,0,0,0,.823,4.962,12.291,12.291,0,0,0,2.319,4.058A11.4,11.4,0,0,0,617.2,64.8a10.264,10.264,0,0,0,4.609,1.03,11.1,11.1,0,0,0,4.726-.968,10.469,10.469,0,0,0,3.582-2.715,12.3,12.3,0,0,0,2.29-4.058A15.488,15.488,0,0,0,633.2,53.03Z"/><path class="d" d="M662.26,39.859a2.026,2.026,0,0,1-.323,1.124,5.69,5.69,0,0,1-.616.811,15.054,15.054,0,0,0-2.524-.936,13.106,13.106,0,0,0-3.582-.437,11.225,11.225,0,0,0-4.021.625,6.175,6.175,0,0,0-2.614,1.841,7.209,7.209,0,0,0-1.409,3.027,18.7,18.7,0,0,0-.41,4.12V68.447h-3.875V48.1q0-5.428,3.052-8.395t8.925-2.965a15.974,15.974,0,0,1,5.284.75Q662.261,38.237,662.26,39.859Z"/><path class="d" d="M695.022,53.03a17.065,17.065,0,0,1-1.174,6.336,16.2,16.2,0,0,1-3.259,5.181,15.518,15.518,0,0,1-22.487,0,16.179,16.179,0,0,1-3.258-5.181,17.045,17.045,0,0,1-1.174-6.336,17.219,17.219,0,0,1,1.174-6.4,16.19,16.19,0,0,1,3.258-5.181,14.853,14.853,0,0,1,4.961-3.464,16.425,16.425,0,0,1,12.565,0,14.863,14.863,0,0,1,4.961,3.464,16.21,16.21,0,0,1,3.259,5.181A17.239,17.239,0,0,1,695.022,53.03Zm-4.168,0a15.064,15.064,0,0,0-.823-5.025,12.4,12.4,0,0,0-2.348-4.089,10.713,10.713,0,0,0-3.64-2.715,11.891,11.891,0,0,0-9.394,0,10.7,10.7,0,0,0-3.64,2.715,12.369,12.369,0,0,0-2.349,4.089,15.064,15.064,0,0,0-.822,5.025,14.39,14.39,0,0,0,.852,4.962,12.694,12.694,0,0,0,2.348,4.058,11.281,11.281,0,0,0,13,2.715,11.243,11.243,0,0,0,3.64-2.715,12.028,12.028,0,0,0,2.348-4.058A14.863,14.863,0,0,0,690.854,53.03Z"/><path class="d" d="M698.016,43.292q-.294-.686-.7-1.81a5.561,5.561,0,0,1-.411-1.81,2.287,2.287,0,0,1,.47-1.467,1.832,1.832,0,0,1,1.526-.593,3.425,3.425,0,0,1,1.028.125,3.97,3.97,0,0,1,.5.188q1.29,3.744,2.906,7.521t3.229,7.272q1.614,3.495,3.082,6.585t2.583,5.524q1.879-3.745,3.729-7.927t3.376-7.8q1.526-3.618,2.524-6.117t1.175-3a6.05,6.05,0,0,1,1-1.779,1.936,1.936,0,0,1,1.526-.593,2.391,2.391,0,0,1,1.439.406,6.824,6.824,0,0,1,.675.531,38.946,38.946,0,0,1-1.292,3.745q-.88,2.247-2.055,4.931t-2.5,5.617q-1.321,2.936-2.671,5.743t-2.613,5.368q-1.263,2.56-2.26,4.494h-4.286q-1.352-2.62-3.112-6.148t-3.464-7.084q-1.7-3.56-3.17-6.742T698.016,43.292Z"/><path class="d" d="M733.772,55.714a11.239,11.239,0,0,0,3.757,7.428,12.336,12.336,0,0,0,8.22,2.621,12.717,12.717,0,0,0,5.078-.905,26.283,26.283,0,0,0,3.2-1.592l1.7,3c-.314.208-.784.49-1.409.842a15.859,15.859,0,0,1-2.29,1.03,20.593,20.593,0,0,1-3.053.843,19.048,19.048,0,0,1-3.758.344,17.738,17.738,0,0,1-6.076-1.03,14.434,14.434,0,0,1-4.99-3.028,14.105,14.105,0,0,1-3.377-4.931,17.446,17.446,0,0,1-1.232-6.8,19.1,19.1,0,0,1,1.174-6.836,15.606,15.606,0,0,1,3.287-5.3,14.71,14.71,0,0,1,5.02-3.433,16.321,16.321,0,0,1,6.371-1.218,16.65,16.65,0,0,1,5.137.718,10.159,10.159,0,0,1,3.67,2.029,8.418,8.418,0,0,1,2.2,3.089,9.977,9.977,0,0,1,.734,3.839,8.885,8.885,0,0,1-.793,3.776,7.367,7.367,0,0,1-2.7,3,15.123,15.123,0,0,1-5.107,2,37.774,37.774,0,0,1-8.073.717q-1.88,0-3.435-.031T733.772,55.714Zm-.118-3.245q1.586.124,3.083.155t3.141.031a33.67,33.67,0,0,0,6.575-.53,13.636,13.636,0,0,0,4.081-1.405,5.067,5.067,0,0,0,2.084-2.059,5.566,5.566,0,0,0,.587-2.5,5.857,5.857,0,0,0-.675-2.934,5.325,5.325,0,0,0-1.82-1.9,8.049,8.049,0,0,0-2.583-1.029,13.961,13.961,0,0,0-2.965-.313,11,11,0,0,0-4.874,1.03,10.486,10.486,0,0,0-3.551,2.778,13.041,13.041,0,0,0-2.231,3.994A15.065,15.065,0,0,0,733.654,52.469Z"/><path class="d" d="M781.327,39.859a2.026,2.026,0,0,1-.322,1.124,5.764,5.764,0,0,1-.617.811,15.054,15.054,0,0,0-2.524-.936,13.106,13.106,0,0,0-3.582-.437,11.225,11.225,0,0,0-4.021.625,6.175,6.175,0,0,0-2.614,1.841,7.209,7.209,0,0,0-1.409,3.027,18.7,18.7,0,0,0-.41,4.12V68.447h-3.875V48.1q0-5.428,3.053-8.395t8.924-2.965a15.974,15.974,0,0,1,5.284.75Q781.328,38.237,781.327,39.859Z"/><path class="e" d="M14.968,87.315A51.168,51.168,0,0,1,86.319,13.969a5.364,5.364,0,0,1,.869.7l17.179,17.18,17.6-17.6.107-.063a51.172,51.172,0,1,1,.056,73.894l-.066-.035L121.3,87.3,104.366,70.359l-17.18,17.18a5.362,5.362,0,0,1-.732.612A51.373,51.373,0,0,1,14.968,87.315ZM68.1,34.187a23.9,23.9,0,1,0,0,33.873l4.178-4.179.032.031L85.112,51.106,72.306,38.3l-3.264-3.166Zm72.463,33.855a23.9,23.9,0,1,0,0-33.874L123.621,51.1Z"/><g class="f"><path class="g" d="M72.306,38.3l-3.264-3.166-.946-.947A23.9,23.9,0,0,0,27.261,51.123c0,.38.01.759.027,1.137a23.73,23.73,0,0,1,6.933-15.8,23.981,23.981,0,0,1,33.875,0l.946.946,3.264,3.167,11.67,11.669,1.136-1.136Z"/><path class="g" d="M174.434,34.168a24.089,24.089,0,0,0-33.877,0L123.621,51.1l1.137,1.137,15.8-15.8a23.894,23.894,0,0,1,40.809,15.8c.018-.377.028-.756.028-1.136A23.783,23.783,0,0,0,174.434,34.168Z"/><path class="g" d="M193.687,87.3a51.34,51.34,0,0,1-71.553.781l-.066-.035L121.3,87.3,104.366,70.359l-17.18,17.18a5.362,5.362,0,0,1-.732.612A51.123,51.123,0,0,1,.027,52.26,51.126,51.126,0,0,0,86.454,90.425a5.443,5.443,0,0,0,.732-.613l17.18-17.179L121.3,89.571l.764.745.066.035a51.13,51.13,0,0,0,86.494-38.109A50.994,50.994,0,0,1,193.687,87.3Z"/></g><path class="b" d="M79.023,67.408,92.967,53.463a3.13,3.13,0,0,0,0-4.429L79.023,35.091l9.6-9.6,25.938,25.718L99.522,66.1,88.618,77Z"/><path class="c" d="M190.753,18.322h0a46.7,46.7,0,0,0-65.854,0h0L107.934,35.288h0a.862.862,0,0,0,0,1.22L119.52,48.092a.861.861,0,0,0,1.219,0h0L137.7,31.128a28.456,28.456,0,1,1,0,40.243L120.739,54.406a.861.861,0,0,0-1.219,0L107.934,65.992a.861.861,0,0,0,0,1.219h0L124.9,84.176h0a46.7,46.7,0,0,0,65.854,0h0A46.7,46.7,0,0,0,190.753,18.322Z"/><path class="c" d="M85.57,82.042,73.985,70.457a.862.862,0,0,0-1.22,0l-.031-.031-.963.963a28.456,28.456,0,1,1,0-40.243l.945.945.049-.049a.862.862,0,0,0,1.22,0L85.57,20.457a.862.862,0,0,0,0-1.22l-.049.049-.945-.945h0a46.7,46.7,0,0,0-65.854,0h0a46.7,46.7,0,0,0,0,65.853h0a46.7,46.7,0,0,0,65.854,0h0l.963-.963.031.03A.861.861,0,0,0,85.57,82.042Z"/></g></svg>