<svg width="50" height="56" viewBox="0 0 50 56" fill="none" xmlns="http://www.w3.org/2000/svg">
<path fill-rule="evenodd" clip-rule="evenodd" d="M22.2713 1.73662C23.2875 -0.578873 26.5876 -0.578873 27.6036 1.73662L49.6286 51.9295C50.468 53.8421 49.0598 55.9833 46.9627 55.9833C45.7963 55.9833 44.7429 55.2902 44.286 54.2224L27.6244 15.2847C26.6183 12.9332 23.2679 12.9378 22.2682 15.2919L10.907 42.5384C9.91075 44.894 12.2462 47.2853 14.6405 46.3613L23.4897 42.5064C24.5798 42.0858 25.8185 42.3553 26.6322 43.1909L26.7377 43.2963C28.1972 44.7951 27.6379 47.2918 25.6738 48.0231C25.6738 48.0231 5.65731 55.5022 4.8794 55.7928C4.10148 56.0835 2.91241 55.9833 2.91241 55.9833C0.815289 55.9833 -0.592914 53.8421 0.246318 51.9295L22.2713 1.73662Z" fill="#ffffff"/>
</svg>
